<?xml version="1.0" encoding="utf-8"?>
<!-- Generator: Adobe Illustrator 17.0.0, SVG Export Plug-In . SVG Version: 6.00 Build 0)  -->
<!DOCTYPE svg PUBLIC "-//W3C//DTD SVG 1.1//EN" "http://www.w3.org/Graphics/SVG/1.1/DTD/svg11.dtd">
<svg version="1.1" id="Capa_1" xmlns="http://www.w3.org/2000/svg" xmlns:xlink="http://www.w3.org/1999/xlink" x="0px" y="0px"
	 width="31px" height="31px" viewBox="0 0 25.774 24.582" enable-background="new 0 0 25.774 24.582" xml:space="preserve">
<path d="M14.448,18.733c-0.147-0.104-0.286-0.198-0.401-0.273l-0.058-0.038l-0.048-0.05c-0.078-0.081-0.462-0.516-0.396-1.095
	c0.028-0.257,0.158-0.628,0.615-0.931l0.093-0.062l0.108-0.024c0.099-0.022,0.206-0.033,0.318-0.033
	c0.473,0,1.042,0.209,1.552,0.457c0.056-0.089,0.109-0.18,0.162-0.271c-0.051-0.058-0.104-0.116-0.161-0.176
	c-0.284-0.294-0.556-0.567-0.83-0.842c-0.643-0.646-1.308-1.314-2.157-2.29l-0.041-0.052c-0.452-0.654-0.315-1.142-0.193-1.374
	c0.208-0.396,0.669-0.639,1.175-0.621c-0.288-0.399-0.38-0.671-0.333-0.912c-0.001-0.297,0.107-0.583,0.314-0.817
	c0.26-0.296,0.656-0.48,1.032-0.48c0.273,0,0.521,0.098,0.697,0.276c0.083,0.084,0.325,0.312,0.657,0.62
	c0-0.035,0.003-0.068,0.009-0.104c0.041-0.308,0.169-0.578,0.354-0.783c-1.283-3.174-4.393-5.415-8.026-5.415
	c-4.781,0-8.656,3.875-8.656,8.656s3.875,8.657,8.656,8.657C11.005,20.756,12.944,19.995,14.448,18.733z M9.059,4.047H9.06
	c2.084-0.188,3.562,0.934,3.562,0.934l-1.983,3.553c-0.485-0.375-1.58-0.411-1.58-0.411V4.047z M5.601,12.099
	c0-1.906,1.552-3.457,3.459-3.457c1.906,0,3.458,1.551,3.458,3.457c0,1.907-1.552,3.458-3.458,3.458
	C7.153,15.557,5.601,14.006,5.601,12.099z M16.676,8.024C16.67,8.012,16.667,8,16.663,7.99c0.004,0.008,0.008,0.014,0.014,0.024
	C16.677,8.016,16.676,8.021,16.676,8.024z M12.151,12.099c0-1.704-1.386-3.092-3.091-3.092c-1.706,0-3.092,1.388-3.092,3.092
	c0,1.705,1.387,3.091,3.092,3.091C10.765,15.19,12.151,13.804,12.151,12.099z M7.522,12.099c0-0.848,0.689-1.535,1.538-1.535
	s1.536,0.688,1.536,1.535c0,0.85-0.687,1.537-1.536,1.537S7.522,12.949,7.522,12.099z M22.008,21.297c0,0,0.136-0.453-0.677-0.573
	c0,0-1.949-0.029-3.414-0.51c-0.433-0.209-1.5-0.489-1.883-0.969s-1.577-1.256-1.577-1.256s-0.607-0.635,0.118-1.116
	c0.854-0.188,2.693,1.094,2.693,1.094s0.785,0.06,0.593-0.471c0,0-0.231-0.727-1.115-1.644c-0.95-0.985-1.77-1.736-2.966-3.11
	c-0.685-0.991,0.523-1.255,0.853-0.917c0.114-0.048,3.556,3.218,3.803,2.936c0.166-0.19-4.152-4.039-3.896-4.508
	c-0.078-0.601,0.733-0.963,1.016-0.678c0.319,0.323,4.76,4.433,4.647,4.015c-0.133-0.494-3.007-3.53-2.965-3.838
	c0.088-0.662,0.764-0.922,1.184-0.367c0.101,0.133,3.306,4.222,3.402,3.802c0.113-0.495-1.093-1.711-1.61-2.835
	c-0.301-0.654,0.567-0.775,0.877-0.284c0.544,0.866,2.594,3.646,2.695,3.846c0,0,1.096,1.747,1.761,4.26l0.227,0.805L22.008,21.297z
	 M1.97,4.201c0.041-0.086,1.029-2.109,3.344-2.109v0.513c-1.986,0-2.845,1.743-2.882,1.817L1.97,4.201z M0.463,3.596L0,3.376
	C0.017,3.342,1.648,0,5.354,0v0.512C1.978,0.512,0.478,3.565,0.463,3.596z M12.57,21.044l0.364,0.36
	c-0.068,0.068-1.666,1.653-3.853,0.892l0.169-0.484C11.125,22.466,12.511,21.102,12.57,21.044z M14.158,22.471l0.364,0.36
	c-0.026,0.026-2.666,2.646-6.165,1.428l0.168-0.483C11.712,24.886,14.134,22.496,14.158,22.471z"/>
</svg>
