<?xml version="1.0" encoding="utf-8"?>
<!-- Generator: Adobe Illustrator 18.0.0, SVG Export Plug-In . SVG Version: 6.00 Build 0)  -->
<!DOCTYPE svg PUBLIC "-//W3C//DTD SVG 1.1//EN" "http://www.w3.org/Graphics/SVG/1.1/DTD/svg11.dtd">
<svg version="1.1" id="Layer_1" xmlns="http://www.w3.org/2000/svg" xmlns:xlink="http://www.w3.org/1999/xlink" x="0px" y="0px"
	 viewBox="0 0 83.1 83.1" enable-background="new 0 0 83.1 83.1" xml:space="preserve">
<path fill="#FFFFFF" d="M80,62.5c-0.7-1.6-1.8-1.8-3.4-2.5c-6.9-2.7-12.8-3.8-19.5-6.3c-0.4-0.2-2.2-1.3-2.5-4.7
	c0-1.3-0.4-2.2-1.8-2.2c-0.4,0-0.2,0-0.4-0.9C52,42.8,52,41.2,52,40.5c0-0.4,0.4-0.9,0.7-1.1c2.5-3.1,2.9-7.2,2.9-9
	c0,0,0.4,0.2,0.9-0.9c0.4-1.3,0.7-1.8,1.1-3.6c0.4-1.1,0.7-3.8-0.9-3.8c-0.9,0.4-0.7,0-0.7-1.1v-8.7c-0.2-3.1-2.2-4.9-3.6-5.8
	c-2.2-1.3-2.9-1.8-3.8-2.7c-0.9-0.7-0.7-1.6,0-2.7c0.4-0.4,1.1-0.9,1.6-1.1c0,0-0.2,0-0.4,0c-0.4,0-5.4,0.7-7.4,1.1
	C38.5,2,34.7,3.4,31.6,5.8c-2.2,1.6-3.8,3.8-4,6.7v8.7c0,0.7,0,1.3-0.9,0.9c-2-0.2-0.9,3.4-0.7,3.6c0.2,1.3,0.9,2.2,1.1,3.8
	c0.2,1.1,0.7,0.9,0.7,0.9c0.4,2.5,1.3,6.7,3.4,9c0.2,0.2,0.4,0.7,0.4,1.1c-0.2,1.6-0.2,3.6-0.4,5.2c0,0.2-0.2,0.9-0.7,0.9
	c-1.3,0-1.8,0.9-1.6,2.2c-0.2,2.5-1.6,4.3-2.5,4.7c-3.4,1.6-15.2,4.9-19,6.3c-2.7,0.7-3.4,1.6-3.8,2.7L0.2,71
	C15.2,71,26,81.1,37,82.7c1.1,0.2,2,0.4,2.9,0.4v-2.5C34.3,79.7,29.8,75,29.8,69v-3.4h1.6V69c0,5.6,4.5,10.1,10.1,10.1
	c5.6,0,10.1-4.5,10.1-10.1v-3.4h1.6V69c0,5.8-4.3,10.8-10.1,11.6v2.2c1.1-0.2,2-0.2,2-0.2C60.9,80,71.9,70.8,82.9,70.8L80,62.5z
	 M33.4,59.4c0-4.7,3.8-8.3,8.3-8.3c4.5,0,8.3,3.8,8.3,8.3v3.4H33.4V59.4z M50.4,69.4h-0.2c0,4.7-3.8,8.3-8.3,8.3
	c-4.5,0-8.3-3.8-8.3-8.3v-3.4h16.8V69.4z"/>
</svg>
