<?xml version="1.0" encoding="iso-8859-1"?>
<!-- Generator: Adobe Illustrator 16.0.0, SVG Export Plug-In . SVG Version: 6.00 Build 0)  -->
<!DOCTYPE svg PUBLIC "-//W3C//DTD SVG 1.1//EN" "http://www.w3.org/Graphics/SVG/1.1/DTD/svg11.dtd">
<svg version="1.1" id="Layer_1" xmlns="http://www.w3.org/2000/svg" xmlns:xlink="http://www.w3.org/1999/xlink" x="0px" y="0px"
	 width="32px" height="32px" viewBox="0 0 28.917 31.121" style="enable-background:new 0 0 28.917 31.121;"
	 xml:space="preserve">
<g>
	<path d="M1.936,7.882c0.632,0.435,1.396,0.691,2.22,0.691c0.008,0,0.016-0.002,0.023-0.002s0.016,0.002,0.023,0.002
		c0.015,0,0.028-0.004,0.042-0.005c0.015,0.001,0.028,0.005,0.042,0.005c2.367,0,4.286-1.919,4.286-4.287
		C8.573,1.919,6.654,0,4.287,0C1.919,0,0,1.919,0,4.286c0,1.24,0.534,2.349,1.375,3.131C1.55,7.586,1.733,7.746,1.936,7.882z"/>
	<path d="M22.584,16.121c0.011,0,0.022-0.003,0.033-0.003c0.011,0,0.021,0.003,0.032,0.003c0.007,0,0.012-0.002,0.019-0.002
		c0.006,0,0.012,0.002,0.018,0.002c0.637,0,1.228-0.199,1.717-0.535c0.156-0.104,0.298-0.229,0.433-0.359
		c0.651-0.605,1.064-1.462,1.064-2.422c0-1.83-1.484-3.314-3.316-3.314c-1.831,0-3.315,1.484-3.315,3.314
		C19.27,14.637,20.754,16.121,22.584,16.121z"/>
	<polygon points="28.163,28.371 28.163,28.557 23.853,28.943 25.365,25.596 25.955,25.494 25.647,17.06 21.661,17.226 
		18.929,19.602 18.573,17.609 16.502,17.979 17.391,22.952 18.471,22.772 21.095,20.613 20.924,25.556 21.426,25.57 20.154,29.379 
		20.155,29.379 19.616,30.877 28.163,30.459 28.163,31.121 28.917,31.121 28.917,28.371 	"/>
	<path d="M9.752,16.387L5.17,9.925L0.764,9.727l-0.34,10.261l0.326-0.006l0.317,5.838l-0.372,4.183H0.591v1.084h3.208h0.08h3.208
		v-1.084h-0.56l0.02-4.772l-0.754-5.325l0.191,0.005l-0.179-5.61l3.33,4.168l0.263-0.758l0.054,0.029l5.734-10.576L14.852,6.98
		L9.752,16.387z M3.842,30.002H3.799H3.247l0.327-4.458l-0.076-4.128l0.491,4.236L3.842,30.002z"/>
</g>
<g>
</g>
<g>
</g>
<g>
</g>
<g>
</g>
<g>
</g>
<g>
</g>
<g>
</g>
<g>
</g>
<g>
</g>
<g>
</g>
<g>
</g>
<g>
</g>
<g>
</g>
<g>
</g>
<g>
</g>
</svg>
